<?xml version="1.0" standalone="no"?>
<!DOCTYPE svg PUBLIC "-//W3C//DTD SVG 20010904//EN"
 "http://www.w3.org/TR/2001/REC-SVG-20010904/DTD/svg10.dtd">
<svg version="1.0" xmlns="http://www.w3.org/2000/svg"
 width="641.000000pt" height="641.000000pt" viewBox="0 0 641.000000 641.000000"
 preserveAspectRatio="xMidYMid meet">
<metadata>
Created by potrace 1.11, written by Peter Selinger 2001-2013
</metadata>
<g transform="translate(0.000000,641.000000) scale(0.100000,-0.100000)"
fill="#000000" stroke="none">
<path d="M2457 6393 c-114 -38 -181 -139 -195 -293 -22 -234 -20 -1523 4
-2542 l7 -266 -26 -26 c-28 -28 -61 -33 -102 -14 -43 19 -52 52 -54 188 -2 69
-4 141 -6 160 -2 19 -6 114 -10 210 -4 96 -8 191 -10 210 -2 19 -6 103 -10
185 -3 83 -8 173 -10 200 -2 28 -7 104 -10 170 -3 66 -8 154 -10 195 -6 92
-13 211 -20 350 -11 205 -31 304 -86 412 -36 71 -117 156 -179 188 -84 43
-191 54 -281 30 -53 -15 -130 -88 -163 -155 -48 -98 -55 -156 -50 -411 2 -127
6 -248 8 -270 3 -21 8 -100 11 -174 4 -74 8 -151 10 -170 2 -19 6 -84 9 -145
4 -60 9 -130 11 -155 2 -25 7 -88 10 -140 4 -52 8 -111 10 -130 2 -19 7 -80
10 -135 3 -55 8 -111 10 -125 2 -14 7 -72 11 -130 3 -58 8 -112 9 -120 2 -9 6
-65 10 -125 4 -61 9 -119 11 -130 3 -11 7 -79 10 -150 6 -130 6 -131 -19 -160
-22 -26 -28 -28 -53 -20 -15 6 -36 24 -45 40 -16 28 -20 49 -34 188 -3 28 -8
68 -10 87 -2 19 -7 60 -10 90 -4 30 -8 66 -10 80 -2 14 -7 50 -10 80 -3 30 -8
66 -10 80 -2 14 -6 43 -9 65 -8 55 -54 381 -61 430 -3 22 -11 69 -16 105 -35
232 -142 359 -309 366 -88 4 -163 -22 -211 -74 -56 -59 -73 -148 -73 -382 -1
-166 9 -394 19 -475 2 -16 7 -61 10 -100 8 -99 34 -336 39 -360 3 -11 8 -51
11 -90 4 -38 8 -77 10 -85 2 -8 7 -37 10 -65 3 -27 12 -93 20 -145 8 -52 17
-115 20 -140 17 -139 138 -877 176 -1075 11 -61 22 -123 25 -140 56 -366 186
-638 414 -865 256 -257 610 -421 1060 -490 103 -16 164 -19 345 -16 235 4 235
4 395 42 558 132 1057 552 1387 1169 172 321 358 577 596 819 179 181 307 270
592 406 215 103 260 149 259 267 -1 86 -46 175 -134 263 -74 75 -164 124 -296
162 -102 29 -293 31 -394 4 -160 -43 -298 -139 -388 -270 -77 -110 -150 -179
-237 -222 -71 -35 -79 -37 -177 -36 -196 0 -311 71 -365 225 -16 45 -18 86
-18 302 0 224 12 761 20 905 2 30 6 165 10 300 5 135 9 261 10 280 1 19 5 139
9 265 5 127 10 246 12 265 2 19 4 121 5 225 1 163 -2 201 -20 269 -50 188
-165 301 -321 313 -210 17 -343 -136 -365 -422 -12 -153 -14 -191 -20 -330 -3
-77 -8 -180 -10 -230 -3 -49 -7 -184 -11 -300 -3 -115 -7 -238 -9 -272 -2 -35
-7 -194 -11 -355 -4 -161 -8 -313 -10 -338 -1 -25 -2 -78 -3 -118 -1 -63 -4
-76 -26 -97 -26 -27 -60 -32 -99 -14 -52 24 -53 35 -60 574 -4 275 -9 592 -11
705 -2 113 -7 405 -10 650 -3 245 -8 488 -10 541 -13 277 -158 450 -378 448
-40 0 -94 -7 -120 -16z"/>
</g>
</svg>
